<svg xmlns="http://www.w3.org/2000/svg" viewBox="0 0 1280 400" width="1280" height="400">
  <defs>
    <linearGradient id="bn-bg" x1="0" y1="0" x2="1" y2="1">
      <stop offset="0" stop-color="#151a33"/>
      <stop offset="1" stop-color="#070914"/>
    </linearGradient>
    <pattern id="bn-grid" width="32" height="32" patternUnits="userSpaceOnUse">
      <path d="M32 0H0V32" fill="none" stroke="#ffffff" stroke-opacity="0.045" stroke-width="1"/>
    </pattern>
    <radialGradient id="bn-glow" cx="0.5" cy="0.5" r="0.5">
      <stop offset="0" stop-color="#a3e635" stop-opacity="0.22"/>
      <stop offset="1" stop-color="#a3e635" stop-opacity="0"/>
    </radialGradient>
  </defs>
  <rect width="1280" height="400" fill="url(#bn-bg)"/>
  <rect width="1280" height="400" fill="url(#bn-grid)"/>
  <circle cx="224.0" cy="200.0" r="190.0" fill="url(#bn-glow)"/>
  <g transform="translate(96 72) scale(1.0)">
  <defs>
    <linearGradient id="bh-bg" x1="0" y1="0" x2="1" y2="1">
      <stop offset="0" stop-color="#1c2140"/>
      <stop offset="1" stop-color="#0a0d1a"/>
    </linearGradient>
    <linearGradient id="bh-lime" gradientUnits="userSpaceOnUse" x1="0" y1="40" x2="0" y2="216">
      <stop offset="0" stop-color="#d9f99d"/>
      <stop offset="1" stop-color="#65a30d"/>
    </linearGradient>
    <radialGradient id="bh-glow" cx="0.5" cy="0.5" r="0.5">
      <stop offset="0" stop-color="#bef264" stop-opacity="0.3"/>
      <stop offset="1" stop-color="#bef264" stop-opacity="0"/>
    </radialGradient>
  </defs>
  <rect width="256" height="256" rx="56" fill="url(#bh-bg)"/>
  <circle cx="128" cy="136" r="96" fill="url(#bh-glow)"/>
  <!-- The bug: a 7 by 7 pixel beetle. -->
  <g fill="url(#bh-lime)">
    <rect x="92" y="40" width="20" height="20" rx="3.5"/>
    <rect x="144" y="40" width="20" height="20" rx="3.5"/>
    <rect x="118" y="66" width="20" height="20" rx="3.5"/>
    <rect x="40" y="92" width="20" height="20" rx="3.5"/>
    <rect x="92" y="92" width="20" height="20" rx="3.5"/>
    <rect x="118" y="92" width="20" height="20" rx="3.5"/>
    <rect x="144" y="92" width="20" height="20" rx="3.5"/>
    <rect x="196" y="92" width="20" height="20" rx="3.5"/>
    <rect x="66" y="118" width="20" height="20" rx="3.5"/>
    <rect x="92" y="118" width="20" height="20" rx="3.5"/>
    <rect x="144" y="118" width="20" height="20" rx="3.5"/>
    <rect x="170" y="118" width="20" height="20" rx="3.5"/>
    <rect x="40" y="144" width="20" height="20" rx="3.5"/>
    <rect x="66" y="144" width="20" height="20" rx="3.5"/>
    <rect x="92" y="144" width="20" height="20" rx="3.5"/>
    <rect x="144" y="144" width="20" height="20" rx="3.5"/>
    <rect x="170" y="144" width="20" height="20" rx="3.5"/>
    <rect x="196" y="144" width="20" height="20" rx="3.5"/>
    <rect x="66" y="170" width="20" height="20" rx="3.5"/>
    <rect x="92" y="170" width="20" height="20" rx="3.5"/>
    <rect x="144" y="170" width="20" height="20" rx="3.5"/>
    <rect x="170" y="170" width="20" height="20" rx="3.5"/>
    <rect x="40" y="196" width="20" height="20" rx="3.5"/>
    <rect x="196" y="196" width="20" height="20" rx="3.5"/>
  </g>
</g>
  <g font-family="ui-sans-serif, -apple-system, BlinkMacSystemFont, 'Segoe UI', Helvetica, Arial, sans-serif">
    <text x="400" y="178" fill="#f8fafc" font-size="96" font-weight="800" letter-spacing="-2">bug<tspan fill="#bef264">hunters</tspan></text>
    <text x="404" y="237.51999999999998" fill="#cbd5e1" font-size="27.839999999999996" font-weight="500">AI agents that explore your app, find bugs, and fix them.</text>
    <rect x="400" y="266.32" width="443.52" height="59.519999999999996" rx="13.440000000000001" fill="#0b0f1f" stroke="#bef264" stroke-opacity="0.5" stroke-width="2"/>
    <text x="421.12" y="305.68" fill="#bef264" font-size="28.799999999999997" font-family="ui-monospace, SFMono-Regular, Menlo, Consolas, monospace">$ <tspan fill="#f8fafc">npx bughunters patrol</tspan></text>
  </g>
</svg>
