<svg xmlns="http://www.w3.org/2000/svg" viewBox="0 0 1280 400" width="1280" height="400">
  <defs>
    <linearGradient id="bn-bg" x1="0" y1="0" x2="1" y2="1">
      <stop offset="0" stop-color="#151a33"/>
      <stop offset="1" stop-color="#070914"/>
    </linearGradient>
    <pattern id="bn-grid" width="32" height="32" patternUnits="userSpaceOnUse">
      <path d="M32 0H0V32" fill="none" stroke="#ffffff" stroke-opacity="0.045" stroke-width="1"/>
    </pattern>
    <radialGradient id="bn-glow" cx="0.5" cy="0.5" r="0.5">
      <stop offset="0" stop-color="#a3e635" stop-opacity="0.22"/>
      <stop offset="1" stop-color="#a3e635" stop-opacity="0"/>
    </radialGradient>
  </defs>
  <rect width="1280" height="400" fill="url(#bn-bg)"/>
  <rect width="1280" height="400" fill="url(#bn-grid)"/>
  <circle cx="224.0" cy="200.0" r="190.0" fill="url(#bn-glow)"/>
  <g transform="translate(96 72) scale(1.0)">
  <defs>
    <linearGradient id="bh-bg" x1="0" y1="0" x2="1" y2="1">
      <stop offset="0" stop-color="#1c2140"/>
      <stop offset="1" stop-color="#0a0d1a"/>
    </linearGradient>
    <linearGradient id="bh-lime" x1="0" y1="0" x2="0" y2="1">
      <stop offset="0" stop-color="#d9f99d"/>
      <stop offset="1" stop-color="#65a30d"/>
    </linearGradient>
    <radialGradient id="bh-glow" cx="0.5" cy="0.5" r="0.5">
      <stop offset="0" stop-color="#bef264" stop-opacity="0.35"/>
      <stop offset="1" stop-color="#bef264" stop-opacity="0"/>
    </radialGradient>
  </defs>
  <rect width="256" height="256" rx="56" fill="url(#bh-bg)"/>
  <circle cx="128" cy="138" r="84" fill="url(#bh-glow)"/>
  <!-- The viewfinder: Bughunters looks at the app the way a tester does. -->
  <g fill="none" stroke="#f8fafc" stroke-width="12" stroke-linecap="round" stroke-linejoin="round" opacity="0.92">
    <path d="M50 94V66a16 16 0 0 1 16-16h28"/>
    <path d="M162 50h28a16 16 0 0 1 16 16v28"/>
    <path d="M206 162v28a16 16 0 0 1-16 16h-28"/>
    <path d="M94 206H66a16 16 0 0 1-16-16v-28"/>
  </g>
  <!-- The bug: a head and a shell in two halves. -->
  <circle cx="128" cy="84" r="14" fill="url(#bh-lime)"/>
  <path d="M122 106C98 109 82 127 82 150C82 172 99 188 122 191Z" fill="url(#bh-lime)"/>
  <path d="M134 106C158 109 174 127 174 150C174 172 157 188 134 191Z" fill="url(#bh-lime)"/>
</g>
  <g font-family="ui-sans-serif, -apple-system, BlinkMacSystemFont, 'Segoe UI', Helvetica, Arial, sans-serif">
    <text x="400" y="178" fill="#f8fafc" font-size="96" font-weight="800" letter-spacing="-2">bug<tspan fill="#bef264">hunters</tspan></text>
    <text x="404" y="237.51999999999998" fill="#cbd5e1" font-size="27.839999999999996" font-weight="500">AI agents that explore your app, find bugs, and fix them.</text>
    <rect x="400" y="266.32" width="443.52" height="59.519999999999996" rx="13.440000000000001" fill="#0b0f1f" stroke="#bef264" stroke-opacity="0.5" stroke-width="2"/>
    <text x="421.12" y="305.68" fill="#bef264" font-size="28.799999999999997" font-family="ui-monospace, SFMono-Regular, Menlo, Consolas, monospace">$ <tspan fill="#f8fafc">npx bughunters patrol</tspan></text>
  </g>
</svg>
